<?xml version="1.0" encoding="UTF-8"?>
<svg version="1.1" xmlns="http://www.w3.org/2000/svg" width="500" height="500">
<path d="M0 0 C165 0 330 0 500 0 C500 165 500 330 500 500 C335 500 170 500 0 500 C0 335 0 170 0 0 Z " fill="#D3D3D3" transform="translate(0,0)"/>
<path d="M0 0 C3.14290154 2.87678725 6.11846811 5.86233195 9 9 C7.55797524 13.15151338 5.4989562 16.29978445 2.875 19.8125 C1.78832031 21.27623047 1.78832031 21.27623047 0.6796875 22.76953125 C0.12539062 23.50558594 -0.42890625 24.24164063 -1 25 C-5.549462 24.51772488 -7.44801827 22.9588578 -10.625 19.75 C-21.83041123 9.30708717 -36.55705744 6.41721018 -51.5 6.5625 C-53.14246704 6.57385986 -53.14246704 6.57385986 -54.81811523 6.58544922 C-62.52125141 6.74294935 -69.11629945 7.2664675 -76 11 C-76.76054687 11.4125 -77.52109375 11.825 -78.3046875 12.25 C-83.91692877 15.86814822 -87.17448529 20.59807976 -89 27 C-90.05986988 35.71344356 -89.89986882 44.46378872 -85 52 C-75.73071712 63.30692696 -60.69399753 65.82062621 -47.125 69 C-2.73811838 79.45524532 -2.73811838 79.45524532 10 98 C17.44576207 112.0175295 19.20205699 126.15197595 16.28125 141.8671875 C15.36476073 144.71273887 14.31872085 147.31946286 13 150 C12.62617188 150.80179688 12.25234375 151.60359375 11.8671875 152.4296875 C5.57113028 164.81332322 -5.22105748 173.28859451 -18.28881836 177.78808594 C-43.82815172 185.25024952 -69.96715185 183.57517505 -93.796875 171.59375 C-103.10733542 166.38914479 -113.78824418 158.09484333 -118 148 C-117.03085953 143.49422007 -114.15606898 140.54685983 -111.125 137.1875 C-110.26132813 136.21167969 -109.39765625 135.23585938 -108.5078125 134.23046875 C-106 132 -106 132 -102 132 C-100.32421875 133.94140625 -100.32421875 133.94140625 -98.6875 136.5625 C-90.79187544 148.3892794 -80.06402455 155.96291829 -66 159 C-59.76642508 160.15839871 -53.7001594 160.25865358 -47.375 160.3125 C-46.26253906 160.34150391 -45.15007812 160.37050781 -44.00390625 160.40039062 C-33.63822123 160.47882712 -23.85160241 158.42772256 -15.68359375 151.703125 C-8.09844038 144.02997681 -6.55043891 135.20388386 -6.56616211 124.83496094 C-6.76729794 116.63930182 -9.06427925 110.59340745 -14.9375 104.75 C-26.87819057 95.95264516 -42.50763299 93.32467378 -56.61767578 89.97363281 C-74.69054699 85.6485565 -94.1050979 79.79355088 -104.9375 63.5 C-110.30470122 54.39470099 -112.19168149 46.31401343 -112.25 35.875 C-112.270625 34.97523438 -112.29125 34.07546875 -112.3125 33.1484375 C-112.38127944 21.18081566 -108.54096857 12.28974811 -100.6875 3.375 C-99.800625 2.59125 -98.91375 1.8075 -98 1 C-97.06414062 0.16855469 -97.06414062 0.16855469 -96.109375 -0.6796875 C-71.61281174 -21.21097973 -24.7360959 -19.44372189 0 0 Z " fill="#030303" transform="translate(217,159)"/>
<path d="M0 0 C6.93 0 13.86 0 21 0 C21 25.74 21 51.48 21 78 C22.32 78 23.64 78 25 78 C25.26039063 77.25492187 25.52078125 76.50984375 25.7890625 75.7421875 C29.57386994 67.17143002 38.8228089 61.79998881 47 58 C54.28105161 55.1826517 61.04484192 54.48438324 68.8125 54.5625 C70.39526733 54.57385986 70.39526733 54.57385986 72.01000977 54.58544922 C84.84570231 54.85634037 95.31617109 57.92278916 104.9296875 66.77734375 C115.04764087 77.39468108 117.33247082 90.81595294 117.22705078 104.95751953 C117.22734283 106.00261185 117.22763489 107.04770416 117.22793579 108.12446594 C117.22655374 111.54400227 117.21104579 114.96331472 117.1953125 118.3828125 C117.19157837 120.76748536 117.18873329 123.15215977 117.18673706 125.53683472 C117.17913211 131.7871938 117.15951073 138.03745868 117.1373291 144.28778076 C117.11680287 150.67621588 117.10772089 157.06466635 117.09765625 163.453125 C117.07626174 175.96879787 117.04110533 188.48437633 117 201 C110.07 201 103.14 201 96 201 C95.98541748 198.00848877 95.97083496 195.01697754 95.95581055 191.93481445 C95.90530388 182.0121956 95.83868092 172.08973102 95.76428509 162.16726398 C95.71970089 156.15571261 95.68041869 150.14422715 95.65356445 144.13256836 C95.62741197 138.32283642 95.58692593 132.51335977 95.53681374 126.70378685 C95.52022548 124.49565004 95.50866145 122.28746915 95.50238609 120.07927895 C96.19390281 100.50416668 96.19390281 100.50416668 89 83 C89 82.34 89 81.68 89 81 C86.2114139 79.58989864 83.40595342 78.23356282 80.5625 76.9375 C79.45068359 76.42509766 79.45068359 76.42509766 78.31640625 75.90234375 C68.22303194 71.9705234 55.94901438 73.27078444 46 77 C35.35391787 82.07627757 28.94421978 89.99770272 25 101 C21.06847551 112.57615545 21.79737222 125.05737258 21.68359375 137.1328125 C21.66298864 138.97940498 21.64199133 140.82599312 21.62062073 142.6725769 C21.56576696 147.50244606 21.51619787 152.33235516 21.46777344 157.16229248 C21.41728824 162.10302225 21.36174407 167.04369496 21.30664062 171.984375 C21.19950877 181.65620278 21.09843469 191.32807979 21 201 C14.07 201 7.14 201 0 201 C0 134.67 0 68.34 0 0 Z " fill="#010101" transform="translate(274,137)"/>
<path d="M0 0 C2.47608061 0.47896109 4.95788673 0.90908728 7.44335938 1.33642578 C18.07096633 3.23623704 28.13828887 6.073078 38.29077148 9.72631836 C40.46574656 10.4929478 42.6549821 11.2024182 44.84960938 11.91064453 C49.33355596 13.39886963 53.62406767 15.20192459 57.92773438 17.14501953 C58.70149414 17.49242188 59.47525391 17.83982422 60.27246094 18.19775391 C106.50126239 39.13368602 142.2452492 69.36877753 166.3671875 114.59179688 C167.28213123 116.3021687 168.22096925 117.9997026 169.16210938 119.69580078 C177.99302618 136.28415139 184.300921 155.11619291 188.36523438 173.45751953 C188.65720703 174.76124512 188.65720703 174.76124512 188.95507812 176.09130859 C194.83857274 203.76872853 195.61141167 236.00267375 188.36523438 263.45751953 C188.12385742 264.39080078 187.88248047 265.32408203 187.63378906 266.28564453 C181.19713249 290.51014324 170.80265105 312.85647653 157.05273438 333.77001953 C156.65642822 334.37442871 156.26012207 334.97883789 155.85180664 335.6015625 C153.33024258 339.3312105 150.62107556 342.38607997 147.36523438 345.45751953 C148.84697658 341.33308245 150.89473023 337.90190335 153.24023438 334.20751953 C163.73256392 317.08937323 171.81770171 298.73640858 177.36523438 279.45751953 C177.57083984 278.75369141 177.77644531 278.04986328 177.98828125 277.32470703 C183.10043584 259.4924102 184.91299001 241.51309844 184.74023438 223.02001953 C184.73558167 222.12476563 184.73092896 221.22951172 184.72613525 220.30712891 C184.64620278 207.16189735 184.24734094 194.33092884 181.36523438 181.45751953 C181.12401855 180.37905762 180.88280273 179.3005957 180.63427734 178.18945312 C178.97928547 170.91934613 177.21774363 163.67969898 175.36523438 156.45751953 C175.2440625 157.23998047 175.12289063 158.02244141 174.99804688 158.82861328 C174.83046875 159.84052734 174.66289062 160.85244141 174.49023438 161.89501953 C174.24660156 163.40902344 174.24660156 163.40902344 173.99804688 164.95361328 C173.78921875 165.77990234 173.58039063 166.60619141 173.36523438 167.45751953 C172.70523437 167.78751953 172.04523438 168.11751953 171.36523438 168.45751953 C171.03426758 167.71928955 170.70330078 166.98105957 170.36230469 166.22045898 C158.69801607 140.32902962 145.99428831 116.11848325 127.36523438 94.45751953 C126.53507812 93.49201172 125.70492188 92.52650391 124.84960938 91.53173828 C91.58060761 53.65625935 42.64968918 32.10432286 -5.75976562 21.77001953 C-6.70062012 21.56739502 -7.64147461 21.36477051 -8.61083984 21.15600586 C-22.61518216 18.2745974 -36.30685172 17.10418115 -50.57055664 17.1418457 C-53.06701138 17.14501287 -55.56228341 17.12140172 -58.05859375 17.09619141 C-68.91092451 17.05435492 -79.01997559 18.27248673 -89.63476562 20.45751953 C-90.95726365 20.69730698 -92.28058743 20.93258925 -93.60473633 21.16308594 C-117.65804618 25.37321959 -140.34739448 36.09966583 -160.62304688 49.49658203 C-162.93156981 50.999667 -165.13891065 52.31127503 -167.63476562 53.45751953 C-139.31354482 23.80541429 -92.95855766 8.32676627 -52.81054688 7.23486328 C-36.21426399 6.95780763 -20.03781331 7.94077042 -3.63476562 10.45751953 C-2.8479541 10.57015137 -2.06114258 10.6827832 -1.25048828 10.79882812 C23.29754954 14.46050868 49.37967763 24.13252819 71.36523438 35.45751953 C72.12352539 35.84617188 72.88181641 36.23482422 73.66308594 36.63525391 C88.5892899 44.38863965 102.47827895 53.64610741 115.36523438 64.45751953 C91.61089491 33.02613359 36.41515194 10.95097961 -1.08398438 5.31445312 C-3.26580601 5.01299161 -5.44962396 4.73377376 -7.63476562 4.45751953 C-8.36518066 4.35600586 -9.0955957 4.25449219 -9.84814453 4.14990234 C-65.02900409 -3.4637353 -125.93122033 11.35164039 -171.12304688 44.27001953 C-171.87134766 44.85783203 -171.87134766 44.85783203 -172.63476562 45.45751953 C-173.29476562 45.12751953 -173.95476562 44.79751953 -174.63476562 44.45751953 C-154.46409276 29.25877605 -132.49590101 17.66745414 -108.63476562 9.45751953 C-107.87534668 9.18601074 -107.11592773 8.91450195 -106.33349609 8.63476562 C-72.99363044 -3.16353875 -34.77968512 -6.73366084 0 0 Z " fill="#070707" transform="translate(271.634765625,30.54248046875)"/>
<path d="M0 0 C0 3.93653866 -1.28777086 4.89463882 -3.75 7.9375 C-26.32865598 37.03675534 -38.62002594 70.95541628 -44 107 C-44.12149414 107.75700195 -44.24298828 108.51400391 -44.36816406 109.29394531 C-51.3697501 153.33078643 -43.94289572 200.17369965 -17.984375 236.84765625 C-6.14726115 253.00659404 7.1901195 267.64187239 23 280 C23.9902417 280.79543213 23.9902417 280.79543213 25.00048828 281.60693359 C30.32813999 285.84227114 35.81750515 289.58162372 41.625 293.125 C42.52959961 293.67921631 43.43419922 294.23343262 44.36621094 294.80444336 C75.15060926 313.53346839 106.02257853 330.63687436 142 336 C139.25 341.875 139.25 341.875 137 343 C127.57317126 343.25282682 118.77363387 340.0433613 110 337 C108.99839844 336.66355469 107.99679688 336.32710938 106.96484375 335.98046875 C87.13004984 328.85275681 68.53333167 318.59210544 51 307 C50.2589502 306.51112305 49.51790039 306.02224609 48.75439453 305.51855469 C39.53598062 299.39520707 30.66962416 292.87474103 22 286 C21.113125 285.30777344 20.22625 284.61554688 19.3125 283.90234375 C9.31822628 275.9455931 -0.03860354 267.0989115 -9 258 C-3.02421995 266.37514628 3.40214006 274.0324033 10.52099609 281.45361328 C11.89784084 282.89318651 13.25634374 284.35024088 14.61328125 285.80859375 C26.35213883 298.08184545 40.1991551 307.78177063 55 316 C55.6815918 316.38720215 56.36318359 316.7744043 57.06542969 317.17333984 C78.31836385 329.19280762 101.27506773 338.2332673 125 344 C126.12849365 344.27739014 127.2569873 344.55478027 128.41967773 344.84057617 C138.23997733 347.04505357 147.54005311 347.4439315 157.5625 347.3125 C158.35589783 347.30557129 159.14929565 347.29864258 159.96673584 347.29150391 C165.31266575 347.24326633 170.65579003 347.14251446 176 347 C177.03012207 346.97341309 178.06024414 346.94682617 179.12158203 346.91943359 C192.75278978 346.42637377 206.12879533 343.64218992 219.5 341.125 C220.4090509 340.95427979 221.31810181 340.78355957 222.25469971 340.60766602 C235.91739925 338.01783248 249.50141817 335.2319183 262.375 329.8125 C263.43352173 329.36922363 263.43352173 329.36922363 264.51342773 328.91699219 C276.45808849 323.77487223 287.3437698 317.06832386 297.86157227 309.45410156 C302.6922458 306 302.6922458 306 306 306 C274.87682327 332.38297346 241.46307205 345.91338396 201.14697266 351.63037109 C198.82505545 351.97460211 198.82505545 351.97460211 196 353 C181.64994107 355.19700864 166.98251236 355.21291949 152.5 355.25 C151.70169769 355.25508575 150.90339539 355.26017151 150.0809021 355.26541138 C135.02707018 355.34252528 120.60625143 354.21785853 106.0625 350 C104.48106201 349.54596802 104.48106201 349.54596802 102.86767578 349.08276367 C76.47542627 341.25117177 51.06658487 329.55292224 29 313 C28.39897461 312.55301758 27.79794922 312.10603516 27.17871094 311.64550781 C18.26776184 304.97310442 10.04830391 297.68146133 2 290 C1.33484375 289.38769531 0.6696875 288.77539062 -0.015625 288.14453125 C-20.07751168 269.16073661 -34.23933895 240.74924026 -43 215 C-43.66538611 213.29116749 -44.33196515 211.58279878 -45 209.875 C-47.28034686 203.58991175 -48.92898042 197.12403847 -50.64404297 190.66723633 C-52.09372061 185.23026267 -53.64940077 179.85256519 -55.35742188 174.49145508 C-64.71612557 144.87639686 -64.84593746 116.15396639 -58 86 C-57.70884653 84.63167804 -57.4185086 83.26318234 -57.12890625 81.89453125 C-52.13789437 58.89247652 -42.97972148 36.66258923 -30 17 C-29.34 16.67 -28.68 16.34 -28 16 C-29.55804196 21.4098679 -32.06475829 26.03082655 -34.75 30.9375 C-54.79804677 68.41378058 -62.32159762 111.16229932 -55 153 C-54.98018066 152.175 -54.96036133 151.35 -54.93994141 150.5 C-54.16048002 119.63160651 -54.16048002 119.63160651 -52 107 C-51.80664062 105.81792969 -51.61328125 104.63585937 -51.4140625 103.41796875 C-44.8593009 67.21255028 -27.59705621 35.46881137 -5.63671875 6.37109375 C-5.20061279 5.79286865 -4.76450684 5.21464355 -4.31518555 4.61889648 C-2.97056352 2.96376586 -1.53311346 1.48041181 0 0 Z " fill="#060606" transform="translate(70,116)"/>
<path d="M0 0 C0.33 0.66 0.66 1.32 1 2 C0.10717773 4.1003418 0.10717773 4.1003418 -1.31640625 6.69921875 C-1.83066162 7.6536084 -2.34491699 8.60799805 -2.87475586 9.59130859 C-3.43171143 10.61305176 -3.98866699 11.63479492 -4.5625 12.6875 C-16.44020019 34.99796653 -24.85875159 59.80172473 -28 85 C-28.99 84.67 -29.98 84.34 -31 84 C-30.37382843 59.18083609 -18.027741 18.027741 0 0 Z " fill="#181818" transform="translate(41,132)"/>
<path d="M0 0 C-2.23951087 2.5396515 -4.0943899 3.60460661 -7.296875 4.65625 C-8.16151367 4.95055908 -9.02615234 5.24486816 -9.91699219 5.5480957 C-11.31933105 6.01928833 -11.31933105 6.01928833 -12.75 6.5 C-32.78078275 13.53331771 -53.19463672 22.79888776 -70 36 C-70.66 35.67 -71.32 35.34 -72 35 C-17.71419791 -5.90473264 -17.71419791 -5.90473264 0 0 Z " fill="#181818" transform="translate(169,40)"/>
<path d="M0 0 C-2.4447756 2.87431158 -4.77802751 3.84784353 -8.32421875 5.04296875 C-9.86625977 5.56987305 -9.86625977 5.56987305 -11.43945312 6.10742188 C-12.51130859 6.46384766 -13.58316406 6.82027344 -14.6875 7.1875 C-15.77095703 7.55552734 -16.85441406 7.92355469 -17.97070312 8.30273438 C-20.64457594 9.20973088 -23.3209421 10.10845973 -26 11 C-24.58934079 7.63605378 -24.1973113 7.09865565 -20.734375 5.3671875 C-19.41165404 4.85559402 -18.08319728 4.35863586 -16.75 3.875 C-16.09386719 3.62363281 -15.43773437 3.37226562 -14.76171875 3.11328125 C-12.84849052 2.38678703 -10.92605277 1.69163725 -9 1 C-7.91203125 0.59007812 -6.8240625 0.18015625 -5.703125 -0.2421875 C-3 -1 -3 -1 0 0 Z " fill="#151515" transform="translate(169,40)"/>
<path d="M0 0 C0.66 0.33 1.32 0.66 2 1 C-7.31261753 8.89426295 -16.91733628 16.73200738 -28 22 C-28 20.68 -28 19.36 -28 18 C-27.3915625 17.69449219 -26.783125 17.38898438 -26.15625 17.07421875 C-17.38630436 12.49579125 -7.0324651 7.0324651 0 0 Z " fill="#111111" transform="translate(374,421)"/>
<path d="M0 0 C0 3.98313087 -1.40605457 5.09063939 -3.875 8.1875 C-9.51518192 15.41773929 -14.24204739 23.17272096 -19 31 C-19.66 30.67 -20.32 30.34 -21 30 C-19.49263481 25.58557338 -17.10413178 22.04523806 -14.375 18.3125 C-13.93422119 17.70253174 -13.49344238 17.09256348 -13.03930664 16.46411133 C-3.87844902 3.87844902 -3.87844902 3.87844902 0 0 Z " fill="#1F1F1F" transform="translate(70,116)"/>
<path d="M0 0 C0.33 0 0.66 0 1 0 C1.3909843 5.73443647 0.20849763 10.57446175 -1.265625 16.109375 C-2.10420917 19.41018502 -2.61596885 22.62052591 -3 26 C-3.99 25.67 -4.98 25.34 -6 25 C-5.20668058 5.20668058 -5.20668058 5.20668058 0 0 Z " fill="#131313" transform="translate(16,191)"/>
<path d="M0 0 C1 3 1 3 0.09130859 4.98950195 C-0.6229126 6.10264771 -0.6229126 6.10264771 -1.3515625 7.23828125 C-1.87363281 8.05876953 -2.39570313 8.87925781 -2.93359375 9.72460938 C-3.49175781 10.57861328 -4.04992187 11.43261719 -4.625 12.3125 C-5.15996094 13.15490234 -5.69492187 13.99730469 -6.24609375 14.86523438 C-9.23598907 19.5173951 -12.35208409 23.84354562 -16 28 C-16 24.61909782 -15.35984852 23.54790018 -13.6640625 20.69140625 C-13.17679687 19.86189453 -12.68953125 19.03238281 -12.1875 18.17773438 C-11.671875 17.31470703 -11.15625 16.45167969 -10.625 15.5625 C-9.61622751 13.85603588 -8.60838124 12.14902382 -7.6015625 10.44140625 C-7.15119629 9.68545166 -6.70083008 8.92949707 -6.23681641 8.15063477 C-4.97426505 6.0352208 -4.97426505 6.0352208 -4.02490234 3.84741211 C-3 2 -3 2 0 0 Z " fill="#141414" transform="translate(436,348)"/>
<path d="M0 0 C0.66 0.33 1.32 0.66 2 1 C0.55617343 5.33147972 -2.73102564 6.29636179 -6.5625 8.3125 C-12.42763008 11.49161387 -17.80595322 14.77983699 -23 19 C-23.66 18.67 -24.32 18.34 -25 18 C-17.08137458 11.32972259 -8.66710954 5.63939927 0 0 Z " fill="#242424" transform="translate(129,65)"/>
<path d="M0 0 C0.33 0.66 0.66 1.32 1 2 C0.04370117 4.29077148 0.04370117 4.29077148 -1.45703125 7.12109375 C-1.99263672 8.13880859 -2.52824219 9.15652344 -3.08007812 10.20507812 C-3.65177734 11.27177734 -4.22347656 12.33847656 -4.8125 13.4375 C-5.37259766 14.50033203 -5.93269531 15.56316406 -6.50976562 16.65820312 C-10.640625 24.4609375 -10.640625 24.4609375 -13 28 C-13.66 28 -14.32 28 -15 28 C-13.43458697 22.49894405 -10.85820515 17.82093725 -8.0625 12.875 C-7.61970703 12.07707031 -7.17691406 11.27914062 -6.72070312 10.45703125 C-4.66250544 6.78233553 -2.58308198 3.33599406 0 0 Z " fill="#212121" transform="translate(41,132)"/>
<path d="M0 0 C-3.83692434 3.01544185 -7.94028853 5.58653668 -12.0625 8.1875 C-12.78244141 8.65091797 -13.50238281 9.11433594 -14.24414062 9.59179688 C-14.93830078 10.02943359 -15.63246094 10.46707031 -16.34765625 10.91796875 C-16.97679932 11.31781982 -17.60594238 11.7176709 -18.25415039 12.12963867 C-20 13 -20 13 -23 13 C-19.34902811 10.31124687 -15.68064764 7.64798202 -12 5 C-11.13246094 4.37222656 -10.26492187 3.74445313 -9.37109375 3.09765625 C-8.58863281 2.54980469 -7.80617188 2.00195312 -7 1.4375 C-6.29875 0.94121094 -5.5975 0.44492187 -4.875 -0.06640625 C-3 -1 -3 -1 0 0 Z " fill="#1F1F1F" transform="translate(120,62)"/>
<path d="M0 0 C1.23593891 3.70781672 0.5678132 4.67510253 -0.9375 8.1875 C-1.31777344 9.08855469 -1.69804687 9.98960937 -2.08984375 10.91796875 C-2.54037109 11.94857422 -2.54037109 11.94857422 -3 13 C-3.99 13 -4.98 13 -6 13 C-3.10933941 3.40546697 -3.10933941 3.40546697 0 0 Z " fill="#131313" transform="translate(27,159)"/>
<path d="M0 0 C4.85967024 2.50346649 8.27856704 6.08552441 12 10 C8.25293787 10 7.23093969 8.95739754 4.3125 6.6875 C3.10013672 5.76517578 3.10013672 5.76517578 1.86328125 4.82421875 C0.94095703 3.92123047 0.94095703 3.92123047 0 3 C0 2.01 0 1.02 0 0 Z " fill="#B7B7B7" transform="translate(377,85)"/>
<path d="M0 0 C-2.06756277 2.7972908 -3.14440371 3.02692273 -6.6875 3.6875 C-7.780625 3.790625 -8.87375 3.89375 -10 4 C-9.67 3.01 -9.34 2.02 -9 1 C-3.79245283 -1.26415094 -3.79245283 -1.26415094 0 0 Z " fill="#0F0F0F" transform="translate(169,40)"/>
<path d="M0 0 C0.66 0.33 1.32 0.66 2 1 C-3.445 5.455 -3.445 5.455 -9 10 C-9.66 9.34 -10.32 8.68 -11 8 C-7.37 5.36 -3.74 2.72 0 0 Z " fill="#252525" transform="translate(374,421)"/>
<path d="M0 0 C0.33 0 0.66 0 1 0 C0.67 2.97 0.34 5.94 0 9 C-0.99 8.67 -1.98 8.34 -3 8 C-2.25 2.25 -2.25 2.25 0 0 Z " fill="#202020" transform="translate(22,171)"/>
<path d="M0 0 C0.66 0 1.32 0 2 0 C1.25 4.75 1.25 4.75 -1 7 C-1.99 7.33 -2.98 7.66 -4 8 C-2.87548273 5.0280615 -1.77706209 2.66559313 0 0 Z " fill="#0D0D0D" transform="translate(48,146)"/>
<path d="M0 0 C0.99 0.33 1.98 0.66 3 1 C0.69 3.97 -1.62 6.94 -4 10 C-4 5.75354935 -2.18249194 3.61475228 0 0 Z " fill="#2B2B2B" transform="translate(424,366)"/>
<path d="M0 0 C0.99 0.33 1.98 0.66 3 1 C0.31158141 3.25245881 -1.64641875 4.88213958 -5 6 C-3.86525052 2.59575156 -3.03188696 1.78346291 0 0 Z " fill="#191919" transform="translate(121,70)"/>
</svg>
